<svg xmlns="http://www.w3.org/2000/svg" viewBox="37 98 136 136">
  <path fill="#4d6335" d="m 96.535962,98.780192 c -0.20667,0.002 -0.41619,0.0143 -0.62856,0.0428 -24.045097,2.974188 -42.774935,23.091278 -43.589214,47.742988 h -0.02851 v 30.24662 h 0.01425 v 53.1375 c 0,2.46749 1.986595,4.45408 4.454232,4.45408 h 40.870582 c 2.467628,0 4.454228,-1.98659 4.454228,-4.45408 v -53.13722 h 0.0143 v -30.24804 h -0.0101 V 104.6334 c 0,-3.20538 -2.447108,-5.877118 -5.547008,-5.853028 z m 16.923968,31.040078 c -3.10004,-0.0285 -5.54715,2.64766 -5.54715,5.85289 v 42.88754 h -0.0101 v 15.09074 h 0.0143 v 36.29705 c 0,2.46763 1.98659,4.45409 4.45423,4.45409 h 40.87072 c 2.4675,0 4.45409,-1.98646 4.45409,-4.45409 v -36.29705 h 0.0143 V 178.5607 h -0.0143 c -0.3549,-25.08615 -19.25648,-45.68656 -43.61187,-48.69895 -0.21237,-0.0285 -0.42189,-0.0428 -0.62856,-0.0428 z"/>
</svg>
